<?xml version="1.0" encoding="iso-8859-1"?>
<!-- Uploaded to: SVG Repo, www.svgrepo.com, Generator: SVG Repo Mixer Tools -->
<svg fill="#000000" height="800px" width="800px" version="1.1" id="Layer_1" xmlns="http://www.w3.org/2000/svg" xmlns:xlink="http://www.w3.org/1999/xlink" 
	 viewBox="0 0 258.976 258.976" xml:space="preserve">
<g>
	<g>
		<g>
			<path d="M165.228,138.404c7.472-2.688,15.268-4.76,23.36-6.076c-7.088-4.588-14.528-8.652-22.256-12.152
				c-8.004,2.444-15.7,5.532-23.02,9.208C150.872,131.824,158.196,134.856,165.228,138.404z M185.508,131.716
				c-6.796,1.268-13.576,3.096-20.204,5.456c-6.172-3.092-12.552-5.776-19.004-7.988c6.42-3.068,13.12-5.688,19.956-7.796
				C172.88,124.412,179.34,127.876,185.508,131.716z"/>
			<path d="M160.008,117.46c-8.06-3.264-16.412-5.908-24.988-7.908c-7.904,3.884-15.444,8.34-22.56,13.34
				c8.4,0.872,16.624,2.436,24.616,4.64C144.36,123.584,152.02,120.204,160.008,117.46z M115.596,122.108
				c6.212-4.192,12.776-8.004,19.56-11.36c7.364,1.736,14.62,3.972,21.616,6.656c-6.812,2.492-13.468,5.484-19.836,8.912
				C129.956,124.416,122.792,123,115.596,122.108z"/>
			<path d="M131.416,130.744c-7.96-1.928-16.152-3.204-24.504-3.78c-6.74,5.152-13.072,10.784-18.94,16.856
				c2.848-0.188,5.68-0.28,8.5-0.28c5.276,0,10.492,0.324,15.632,0.932C118.148,139.428,124.596,134.828,131.416,130.744z
				 M96.468,142.404c-1.872,0-3.76,0.04-5.636,0.124c5.14-5.132,10.652-9.964,16.424-14.4c7.136,0.516,14.252,1.556,21.2,3.096
				c-5.788,3.612-11.396,7.664-16.708,12.064C106.652,142.704,101.512,142.404,96.468,142.404z"/>
			<path d="M204.5,198.036l-6.644-58.136c-1.836-16.044-10.604-30.048-23.876-38.724c0.252-0.196,0.52-0.388,0.76-0.592
				c10.824-9.236,19-19.588,24.296-30.764l2.2-4.648l-4.76,1.936c-4.82,1.96-9.408,4.14-13.828,6.46
				c5.292-7.468,9.22-15.3,11.552-23.444l1.284-4.488l-4.132,2.164c-5.968,3.124-11.464,6.58-16.604,10.264
				c1.74-9.26,2.1-18.588,0.952-27.9l-0.464-3.796l-2.852,2.552c-4.684,4.188-8.948,8.54-12.876,13.012
				c0.556-9.224-0.536-18.392-3.5-27.376l-1.12-3.4l-2.308,2.74c-6.076,7.212-10.8,14.792-14.336,22.616
				c-4.032-11.752-10.132-23.056-18.296-33.764L117.856,0l-1.34,3.184c-5.016,11.92-7.884,24.02-8.64,36.164
				C102.308,32.4,95.652,25.916,87.78,20.044l-3.016-2.248l-0.176,3.756c-0.44,9.18,0.888,18.196,3.848,26.952
				c-4.968-3.548-10.22-6.92-15.824-10.064l-3.572-2.004l0.616,4.052c1.408,9.212,4.256,18.156,8.412,26.776
				c-5.956-2.588-12.156-4.932-18.756-6.828l-4.876-1.4l2.608,4.348c4.436,7.408,10.324,14.22,17.404,20.432
				c-4.828-1.38-9.748-2.632-14.856-3.604l-5.468-1.044l3.556,4.284c8.176,9.86,18.924,18.376,31.948,25.312
				c1.544,0.82,3.168,1.548,4.776,2.3c-10.428,11.364-15.544,26.576-13.756,42.22c0.404,3.524,6.244,54.608,6.648,58.136
				c3.124,27.332,26.396,47.56,53.292,47.556c2.028,0,4.076-0.112,6.132-0.348l10.54-1.204c14.248-1.624,27.004-8.7,35.924-19.916
				C202.104,226.292,206.124,212.272,204.5,198.036z M200.04,194.264c-3.668-4.724-7.608-9.216-11.872-13.376
				c3.284-0.872,6.668-1.512,10.116-1.988L200.04,194.264z M197.772,174.408c-4.62,0.64-9.128,1.576-13.468,2.876
				c-4.964-4.472-10.248-8.568-15.832-12.24c6.4-2.728,13.144-4.844,20.176-6.28c2.812,2.236,5.504,4.608,8.144,7.044
				L197.772,174.408z M196.008,158.992c-0.48-0.416-0.956-0.844-1.444-1.256c0.424-0.064,0.856-0.116,1.28-0.18L196.008,158.992z
				 M193.88,140.352l1.452,12.72c-1.852,0.256-3.704,0.512-5.524,0.848c-6.04-4.668-12.428-8.888-19.116-12.612
				c7.192-2.324,14.708-4,22.46-5.02C193.42,137.632,193.72,138.972,193.88,140.352z M191.06,128.648
				c-5.804-3.772-11.788-7.28-18.028-10.34c3.608-0.92,7.292-1.668,11.016-2.32C186.976,119.832,189.364,124.072,191.06,128.648z
				 M180.724,112.008c-4.776,0.916-9.492,1.992-14.08,3.336c-8.076-3.564-16.452-6.532-25.072-8.844
				c2.612-1.144,5.264-2.22,7.952-3.236l16.74-1.912C171.804,104.052,176.656,107.692,180.724,112.008z M172.144,97.54
				c-0.604,0.516-0.868,0.704-1.504,1.196c-2.648-2.192-6-1.224-6-1.224l27.648-23.592C187.34,82.376,180.616,90.312,172.144,97.54z
				 M189.972,74.408l-27.348,23.336l-8.012,0.916c1.892-1.908,3.848-3.792,5.976-5.608
				C169.036,85.844,178.932,79.628,189.972,74.408z M173.444,63.944c4.724-3.652,9.84-7.068,15.368-10.208
				c-3.224,8.764-8.412,17.148-15.344,25.032c-2.496,1.556-4.924,3.164-7.264,4.84c0.66-1.352,1.328-2.704,1.924-4.072
				C170.376,74.372,172.116,69.168,173.444,63.944z M164.464,77.936c-1.756,4.032-3.876,7.964-6.18,11.844
				c-0.092,0.076-0.196,0.148-0.288,0.224c-3.516,3-6.684,6.14-9.62,9.364l-4.328,0.496l28.112-64.468
				C173.124,49.668,170.556,63.952,164.464,77.936z M170.64,36.036l-27.896,63.976l-7.096,0.812
				c1.084-8.624,3.392-17.208,7.084-25.684C148.828,61.164,158.228,48.04,170.64,36.036z M153.284,19.36
				c2.524,9.208,3.016,18.6,1.672,28.024c-4.284,5.416-8.024,11.016-11.208,16.78c-0.144-2.544-0.348-5.088-0.7-7.628
				c-0.66-4.776-1.644-9.492-2.948-14.14C143.168,34.44,147.512,26.72,153.284,19.36z M139.092,57.084
				c0.676,4.892,0.876,9.788,0.816,14.684c-0.272,0.596-0.58,1.18-0.84,1.776c-3.52,8.068-5.912,16.244-7.18,24.46L119.64,9.14
				C130.212,24.144,136.768,40.248,139.092,57.084z M118.492,9.096l12.244,88.868c-3.464-7.752-8.008-15.248-13.62-22.424
				c-0.468-0.6-0.98-1.176-1.46-1.768c-1.364-4.708-2.4-9.48-3.064-14.32C110.272,42.616,112.276,25.7,118.492,9.096z
				 M107.652,45.66c-0.004,4.78,0.32,9.56,0.98,14.336c0.332,2.42,0.784,4.816,1.292,7.2c-4.652-4.98-9.8-9.7-15.42-14.144
				c-3.852-8.86-5.92-18.036-6-27.404C96.148,31.748,102.492,38.472,107.652,45.66z M113.968,78.004
				c5.912,7.564,10.532,15.496,13.94,23.704l-6.864,0.784l-44.7-57.2C91.612,54.616,104.268,65.588,113.968,78.004z M74.528,44.804
				l45.2,57.836l-3.74,0.428c-3.968-2.796-8.2-5.432-12.744-7.852c-0.12-0.064-0.252-0.116-0.376-0.18
				c-3.32-3.36-6.468-6.812-9.292-10.424C83.876,72.196,77.496,58.824,74.528,44.804z M63.436,65.872
				c6.192,2.008,12.032,4.392,17.588,7.048c2.716,4.832,5.82,9.568,9.408,14.156c0.872,1.116,1.796,2.204,2.716,3.292
				c-2.552-1.104-5.216-2.076-7.876-3.048C76.356,80.968,68.996,73.792,63.436,65.872z M101.36,98.748
				c2.96,1.576,5.724,3.28,8.416,5.028l-7.228,0.824L68.036,86.224C80.072,89.224,91.276,93.38,101.36,98.748z M91.512,105.232
				C81.392,99.844,72.756,93.46,65.66,86.248l35.192,18.736l-0.168,0.132c-1.16,0.92-2.2,1.944-3.268,2.944
				C95.428,107.14,93.416,106.244,91.512,105.232z M102.728,108.608l16.74-1.912c2.848,0.384,5.676,0.832,8.484,1.36
				c-7.88,4.196-15.368,8.976-22.432,14.268c-2.784-0.16-5.588-0.24-8.404-0.24c-2.016,0-4.04,0.084-6.068,0.16
				C94.036,117.128,97.94,112.484,102.728,108.608z M88.688,126.904c2.732-0.148,5.46-0.284,8.168-0.284
				c1.036,0,2.072,0.012,3.104,0.036c-5.388,4.388-10.428,9.156-15.232,14.136C85.348,135.956,86.712,131.3,88.688,126.904z
				 M84.624,152.832c-0.16-1.384-0.168-2.752-0.212-4.128c4.16-0.4,8.296-0.624,12.396-0.624c3.568,0,7.112,0.152,10.616,0.452
				c-5.672,5.136-10.944,10.688-15.776,16.596c-1.848,0.084-3.712,0.252-5.572,0.42C85.316,158.864,84.74,153.852,84.624,152.832z
				 M86.592,170.036c0.428-0.036,0.86-0.08,1.288-0.116c-0.384,0.508-0.748,1.032-1.124,1.548
				C86.7,170.988,86.648,170.508,86.592,170.036z M87.536,178.288c2.02-2.968,4.108-5.892,6.344-8.7
				c0.932-0.024,1.864-0.036,2.792-0.036c6.212,0,12.324,0.548,18.284,1.604c-4.612,4.836-8.836,10.02-12.66,15.492
				c-1.948-0.124-3.908-0.192-5.876-0.192c-2.612,0-5.248,0.148-7.9,0.388C88.192,184.02,87.86,181.132,87.536,178.288z
				 M89.032,191.36c2.528-0.228,5.044-0.372,7.536-0.372c0.928,0,1.852,0.016,2.772,0.044c-3.216,5.012-6.036,10.276-8.548,15.708
				C90.372,203.104,89.74,197.556,89.032,191.36z M92.016,215.436c0.376-0.964,0.72-1.94,1.124-2.892
				c1.168-0.064,2.332-0.096,3.488-0.096c4.92,0,9.732,0.58,14.36,1.684c-2.476,5.132-4.568,10.464-6.228,15.972
				c-2.464-0.456-4.996-0.684-7.564-0.72C94.812,225.112,93.052,220.424,92.016,215.436z M102.856,237.548
				c-0.924-1.076-1.784-2.208-2.616-3.368c1.104,0.1,2.224,0.136,3.304,0.324C103.288,235.512,103.08,236.536,102.856,237.548z
				 M106.7,241.52c0.388-2.008,0.768-4.02,1.272-5.988c5.076,1.488,9.776,3.952,13.86,7.196c0.528,0.416,1.04,0.848,1.548,1.292
				c-0.496,2.432-0.856,4.904-1.144,7.4C116.464,249.112,111.208,245.732,106.7,241.52z M126.676,252.964
				c0.172-1.68,0.332-3.36,0.604-5.012c1.64,1.892,3.032,3.992,4.304,6.176C129.924,253.82,128.284,253.436,126.676,252.964z
				 M137.136,254.812c-2.244-4.616-5.196-8.796-8.772-12.34c1.4-5.956,3.46-11.68,6.08-17.108c0.248,0.192,0.504,0.372,0.748,0.568
				c4.556,3.62,8.6,7.88,11.996,12.656c-1.908,5.164-3.148,10.62-3.72,16.24C141.336,254.948,139.22,254.96,137.136,254.812z
				 M148.12,254.444c0.432-3.752,1.124-7.432,2.208-10.972c1.852,3.204,3.356,6.636,4.628,10.192L148.12,254.444z M159.576,252.996
				c-1.828-5.348-4.268-10.388-7.292-14.992c2.236-5.416,5.212-10.48,8.832-15.032c0.196-0.248,0.404-0.48,0.604-0.724
				c3.776,4.696,7.072,9.812,9.784,15.292c-2.692,4.268-4.624,9.016-5.768,14.028C163.728,252.184,161.668,252.64,159.576,252.996z
				 M170.98,249.676c0.744-2.432,1.632-4.808,2.812-7.032c0.644,1.556,1.18,3.164,1.728,4.768
				C174.048,248.24,172.536,249,170.98,249.676z M190.056,235.016c-3.064,3.852-6.62,7.172-10.552,9.904
				c-0.848-2.376-1.76-4.716-2.8-6.988c0.392-0.544,0.796-1.084,1.216-1.608c3.248-4.084,7.272-7.54,11.88-10.136
				c0.94,1.812,1.764,3.692,2.596,5.568C191.656,232.864,190.896,233.96,190.056,235.016z M195.248,227.02
				c-0.452-0.944-0.884-1.9-1.364-2.824c1.016-0.428,2.108-0.72,3.168-1.068C196.504,224.444,195.916,225.748,195.248,227.02z
				 M197.62,221.704c-1.416,0.428-2.832,0.876-4.18,1.444l-1.132,0.476l0.564,1.088c0.548,1.052,1.112,2.22,1.7,3.464
				c-0.456,0.816-0.904,1.632-1.404,2.424c-0.772-1.708-1.556-3.388-2.364-4.94l-0.54-1.04l-1.02,0.576
				c-4.716,2.652-8.824,6.156-12.212,10.416c-0.432,0.54-0.844,1.092-1.248,1.656l-0.384,0.536l0.272,0.6
				c1.052,2.3,1.98,4.712,2.84,7.148c-0.648,0.428-1.308,0.832-1.976,1.228c-0.54-1.568-1.096-3.116-1.7-4.568l-0.92-2.228
				l-1.128,2.132c-1.336,2.52-2.368,5.244-3.172,8.08c-0.876,0.348-1.756,0.696-2.656,0.996c1.12-4.608,2.944-8.988,5.496-13.036
				l0.34-0.536l-0.28-0.568c-2.704-5.468-6.04-10.684-9.916-15.504l-0.876-1.088l-0.884,1.084l-0.248,0.296l-0.364,0.44
				c-3.696,4.648-6.72,9.8-8.992,15.304l-0.228,0.556l0.328,0.5c2.972,4.524,5.352,9.416,7.124,14.552
				c-0.552,0.08-1.092,0.208-1.652,0.272l-0.66,0.076c-1.304-3.696-2.904-7.272-4.84-10.624l-1.304-2.252l-0.764,2.488
				c-1.132,3.696-1.884,7.54-2.32,11.444l-0.656,0.076c-0.56,0.064-1.112,0.06-1.672,0.104c0.564-5.396,1.776-10.696,3.656-15.78
				l0.208-0.564l-0.348-0.488c-3.456-4.856-7.568-9.192-12.216-12.884l-0.444-0.336l-0.316-0.24l-1.108-0.86l-0.608,1.264
				c-2.692,5.572-4.764,11.408-6.164,17.34l-0.144,0.62l0.452,0.448c3.396,3.368,6.16,7.22,8.288,11.448
				c-0.952-0.092-1.884-0.248-2.824-0.396c-1.416-2.564-3.032-4.976-4.892-7.124l-1.58-1.824l-0.396,2.38
				c-0.256,1.544-0.448,3.156-0.62,4.808c-0.74-0.236-1.472-0.496-2.2-0.768c0.288-2.552,0.648-5.096,1.148-7.56l0.132-0.644
				l-0.496-0.432c-0.52-0.456-1.048-0.9-1.588-1.328c-4.256-3.384-9.052-5.872-14.248-7.396l-1.124-0.332l-0.292,1.136
				c-0.436,1.692-0.816,3.492-1.18,5.308c-0.66-0.652-1.288-1.336-1.912-2.024c0.28-1.296,0.556-2.572,0.856-3.744l0.304-1.188
				l-1.208-0.212c-1.42-0.248-2.884-0.36-4.348-0.46c-0.524-0.78-1.024-1.572-1.504-2.384c2.236,0.068,4.472,0.272,6.664,0.676
				l1,0.184l0.292-0.972c1.608-5.34,3.684-10.656,6.164-15.808l0.612-1.268l-1.368-0.328c-4.764-1.14-9.684-1.716-14.624-1.716
				c-1.176,0-2.36,0.032-3.548,0.1l-0.708,0.04l-0.276,0.652c-0.148,0.348-0.3,0.74-0.448,1.104c-0.12-0.748-0.284-1.48-0.372-2.244
				c-0.036-0.328-0.124-1.064-0.244-2.132l0.06-0.132c2.648-5.924,5.744-11.66,9.204-17.052l1.076-1.68l-1.996-0.064
				c-0.932-0.032-1.872-0.044-2.808-0.044c-2.556,0-5.124,0.156-7.664,0.384c-0.084-0.748-0.172-1.5-0.256-2.26
				c2.568-0.232,5.168-0.388,7.772-0.388c1.916,0,3.868,0.064,5.804,0.188l0.636,0.04l0.364-0.524
				c3.816-5.464,8.04-10.632,12.552-15.36l1.46-1.528l-2.08-0.368c-6.06-1.076-12.276-1.624-18.48-1.624
				c-0.936,0-1.88,0.012-2.82,0.036l-0.528,0.012l-0.328,0.412c-1.912,2.4-3.8,4.98-5.656,7.66c-0.132-1.152-0.26-2.288-0.388-3.408
				c0.608-0.848,1.212-1.696,1.84-2.532l1.52-2.016l-2.516,0.204l-0.668,0.052c-0.22,0.016-0.44,0.036-0.656,0.056
				c-0.088-0.772-0.176-1.528-0.26-2.268c1.688-0.156,3.46-0.28,5.5-0.372l0.508-0.024l0.32-0.392
				c4.8-5.872,10.068-11.416,15.66-16.476l1.932-1.748l-2.596-0.224c-3.532-0.304-7.136-0.456-10.716-0.456
				c-4.116,0-8.296,0.224-12.456,0.624c-0.016-1.7,0.088-3.38,0.244-5.052c5.124-5.392,10.508-10.448,16.076-14.98l2.388-1.944
				l-3.08-0.068c-1.04-0.024-2.084-0.036-3.132-0.036c-2.468,0-5.02,0.092-7.584,0.22c0.372-0.772,0.708-1.564,1.124-2.316
				c2.264-0.096,4.524-0.164,6.72-0.164c2.812,0,5.62,0.08,8.336,0.236l0.412,0.024l0.332-0.248
				c7.072-5.296,14.568-10.068,22.284-14.176l2.848-1.516l-3.172-0.6c-1.46-0.276-2.964-0.492-4.452-0.732l7.808-0.892
				c0.904,0.184,1.812,0.356,2.712,0.556l0.384,0.084l0.356-0.168c0.832-0.4,1.68-0.768,2.516-1.152l7.804-0.892
				c-1.396,0.568-2.812,1.116-4.172,1.716l-2.956,1.296l3.116,0.836c8.444,2.264,16.828,5.22,24.908,8.784l0.38,0.168l0.396-0.116
				c4.652-1.364,9.584-2.512,14.652-3.464c0.572,0.636,1.072,1.328,1.608,1.996c-3.584,0.644-7.1,1.384-10.472,2.244l-2.988,0.76
				l2.768,1.356c6.448,3.16,12.836,6.872,19.044,10.968c0.528,1.596,1.008,3.208,1.38,4.868c-7.74,1.024-15.344,2.712-22.608,5.064
				l-2.48,0.8l2.276,1.268c6.588,3.668,12.972,7.88,18.972,12.52l0.4,0.308l0.5-0.092c2.012-0.372,3.764-0.648,5.44-0.88l0.26,2.268
				c-0.2,0.028-0.404,0.056-0.604,0.088l-0.708,0.104l-2.5,0.368l1.936,1.624c0.796,0.668,1.58,1.36,2.36,2.048l0.388,3.408
				c-2.416-2.192-4.84-4.28-7.236-6.188l-0.412-0.328l-0.52,0.104c-7.016,1.432-13.876,3.568-20.396,6.348l-1.944,0.828l1.768,1.16
				c5.46,3.588,10.74,7.672,15.696,12.136l0.472,0.428l0.612-0.184c4.392-1.316,8.844-2.26,13.268-2.872l0.256,2.252
				c-3.44,0.476-6.888,1.144-10.276,2.044l-1.928,0.512l1.428,1.396c4.588,4.476,8.9,9.368,12.816,14.54l0.088,0.116l0.244,2.132
				c0.088,0.76,0.096,1.516,0.148,2.276c-0.228-0.324-0.464-0.672-0.688-0.98l-0.416-0.572l-0.696,0.12
				c-6.064,1.052-11.896,2.964-17.34,5.672l-1.26,0.628l0.88,1.096c3.584,4.46,6.804,9.176,9.576,14.012l0.504,0.88l0.932-0.404
				c2.048-0.892,4.188-1.596,6.364-2.164C198.244,219.944,197.952,220.832,197.62,221.704z M198.948,217.808
				c-2.5,0.612-4.936,1.368-7.24,2.368c-2.86-4.992-6.104-9.712-9.676-14.156c5.264-2.62,10.976-4.52,17.028-5.572
				c0.608,0.84,1.168,1.72,1.756,2.58C200.94,208.072,200.316,213.044,198.948,217.808z"/>
			<path d="M162.4,192.752c-4.78,3.288-9.184,7.052-13.156,11.22c4.524,3.376,8.72,7.184,12.528,11.368
				c3.916-4.056,8.356-7.616,13.224-10.592C171.128,200.404,166.924,196.384,162.4,192.752z M150.952,203.84
				c3.496-3.556,7.32-6.804,11.396-9.672c3.828,3.132,7.488,6.6,10.9,10.332c-4.152,2.652-7.996,5.736-11.448,9.192
				C158.468,210.128,154.828,206.82,150.952,203.84z"/>
			<path d="M142.512,175.084c5.112-3.976,10.612-7.496,16.424-10.536c-5.94-3.372-12.164-6.268-18.616-8.652
				c-5.752,3.78-11.164,8.004-16.188,12.628C130.48,170.176,136.632,172.364,142.512,175.084z M140.464,157.16
				c5.532,2.072,10.936,4.548,16.108,7.368c-5.012,2.74-9.78,5.84-14.208,9.236c-5.084-2.312-10.428-4.256-15.928-5.796
				C130.832,164.056,135.54,160.428,140.464,157.16z"/>
			<path d="M137.632,132.404c-6.836,3.812-13.316,8.148-19.4,12.944c7.368,1.232,14.568,3.052,21.508,5.48
				c6.212-3.928,12.812-7.328,19.712-10.188C152.444,137.344,145.152,134.58,137.632,132.404z M139.596,149.58
				c-5.98-2.06-12.24-3.708-18.648-4.9c5.356-4.072,11.004-7.78,16.824-11.052c6.408,1.876,12.744,4.216,18.88,6.976
				C150.68,143.212,144.952,146.224,139.596,149.58z"/>
			<path d="M130.148,193.108c5.4,2.232,10.54,4.992,15.364,8.216c3.968-4.232,8.352-8.076,13.108-11.472
				c-4.876-3.572-10.064-6.716-15.496-9.412C138.436,184.292,134.092,188.524,130.148,193.108z M143.276,181.788
				c4.68,2.36,9.18,5.068,13.412,8.072c-4.04,2.992-7.848,6.348-11.344,9.996c-4.24-2.772-8.708-5.18-13.312-7.18
				C135.476,188.796,139.252,185.14,143.276,181.788z"/>
			<path d="M164.76,218.8c3.688,4.496,6.94,9.376,9.696,14.584c3.604-4.5,8.064-8.312,13.168-11.18
				c-2.84-4.932-6.072-9.588-9.64-13.956C173.092,211.164,168.644,214.716,164.76,218.8z M174.656,231.368
				c-2.436-4.392-5.248-8.588-8.384-12.504c3.432-3.488,7.276-6.556,11.456-9.136c3.084,3.848,5.884,7.896,8.344,12.06
				C181.768,224.348,177.936,227.564,174.656,231.368z"/>
			<path d="M179.052,202.456c5.26-2.728,10.948-4.788,16.976-6.048c-3.94-5-8.248-9.68-12.872-14.012
				c-5.932,1.98-11.54,4.608-16.756,7.776C170.932,193.92,175.164,198.02,179.052,202.456z M194.008,195.7
				c-5.092,1.208-10.024,3.004-14.688,5.348c-3.384-3.8-7.064-7.396-10.964-10.716c4.632-2.692,9.508-4.92,14.52-6.644
				C186.856,187.464,190.596,191.496,194.008,195.7z"/>
			<path d="M147.096,177.332c5.448,2.836,10.62,6.144,15.5,9.832c5.212-3.3,10.816-6.06,16.736-8.232
				c-1.332-1.152-2.68-2.292-4.06-3.388c-3.744-2.976-7.676-5.712-11.732-8.248C157.716,170.148,152.224,173.52,147.096,177.332z
				 M177.14,178.552c-5.072,1.984-9.932,4.412-14.488,7.24c-4.336-3.232-8.844-6.12-13.428-8.608
				c4.532-3.252,9.316-6.136,14.244-8.588c3.972,2.508,7.704,5.144,11.096,7.84C175.436,177.124,176.292,177.832,177.14,178.552z"/>
			<path d="M145.164,152.868c6.484,2.596,12.712,5.712,18.66,9.276c6.368-2.94,13.084-5.284,20.096-6.972
				c-6.024-4.408-12.376-8.372-19.012-11.832C157.992,145.948,151.404,149.16,145.164,152.868z M163.896,160.864
				c-5.244-3.108-10.672-5.852-16.176-8.172c5.552-3.168,11.3-5.892,17.112-8.116c5.648,2.972,11.172,6.36,16.448,10.092
				C175.304,156.248,169.468,158.328,163.896,160.864z"/>
			<path d="M134.908,154.04c-6.916-2.204-14.056-3.852-21.38-4.836c-5.688,4.872-10.98,10.164-15.856,15.816
				c7.212,0.064,14.284,0.832,21.148,2.264C123.816,162.472,129.18,158.028,134.908,154.04z M100.132,163.936
				c4.3-4.824,8.912-9.368,13.748-13.54c6.172,0.856,12.38,2.216,18.5,4.048c-4.836,3.5-9.504,7.396-13.912,11.608
				C112.468,164.84,106.316,164.128,100.132,163.936z"/>
			<path d="M138.548,178.308c-5.856-2.56-11.968-4.608-18.28-6.072c-3.38,3.388-6.592,6.94-9.568,10.68
				c-1.1,1.38-2.152,2.792-3.192,4.216c6.256,0.78,12.34,2.204,18.16,4.248C129.592,186.688,133.884,182.3,138.548,178.308z
				 M109.556,186.268c0.664-0.892,1.34-1.772,2.032-2.644c2.7-3.392,5.736-6.8,9.04-10.136c5.356,1.276,10.664,3.008,15.816,5.156
				c-3.904,3.46-7.644,7.292-11.14,11.416C120.228,188.328,114.944,187.056,109.556,186.268z"/>
			<path d="M104.56,191.372c-3.524,5.264-6.664,10.792-9.376,16.552c0.476-0.012,0.952-0.016,1.424-0.016
				c5.656,0,11.184,0.72,16.476,2.08c2.784-5.196,5.984-10.148,9.552-14.82C116.84,193.26,110.788,191.964,104.56,191.372z
				 M112.508,208.676c-5.068-1.232-10.284-1.868-15.516-1.9c2.376-4.864,5.108-9.636,8.136-14.212
				c5.272,0.548,10.524,1.62,15.644,3.196C117.72,199.88,114.948,204.212,112.508,208.676z"/>
			<path d="M127.12,196.78c-3.58,4.56-6.776,9.424-9.568,14.524c5.412,1.804,10.544,4.268,15.272,7.336
				c2.768-4.932,5.996-9.588,9.644-13.896C137.656,201.58,132.516,198.904,127.12,196.78z M132.428,217.044
				c-4.144-2.584-8.584-4.724-13.228-6.372c2.48-4.396,5.26-8.6,8.288-12.524c4.62,1.876,9.08,4.176,13.288,6.852
				C137.676,208.776,134.876,212.816,132.428,217.044z"/>
			<path d="M148.552,209.136c-0.768-0.608-1.56-1.192-2.348-1.776c-0.636,0.748-1.276,1.492-1.892,2.26
				c-2.904,3.656-5.484,7.56-7.748,11.652c4.728,3.552,8.996,7.712,12.648,12.408c2.496-5.396,5.716-10.412,9.524-14.936
				C155.604,215.264,152.208,212.04,148.552,209.136z M148.968,231.564c-3.212-3.904-6.88-7.46-10.936-10.596
				c2.144-3.776,4.552-7.356,7.164-10.64c0.384-0.484,0.784-0.956,1.184-1.428c0.496,0.368,0.984,0.74,1.468,1.124
				c3.28,2.608,6.436,5.548,9.384,8.756C153.988,222.748,151.216,227.04,148.968,231.564z"/>
		</g>
	</g>
</g>
</svg>